<?xml version="1.0" standalone="no"?><!-- Generator: Gravit.io --><svg xmlns="http://www.w3.org/2000/svg" xmlns:xlink="http://www.w3.org/1999/xlink" style="isolation:isolate" viewBox="0 0 56 80" width="56" height="80"><defs><clipPath id="_clipPath_4u9avDFEfBJoJMc8PFyD4ftFAT5sDYRb"><rect width="56" height="80"/></clipPath></defs><g clip-path="url(#_clipPath_4u9avDFEfBJoJMc8PFyD4ftFAT5sDYRb)"><g><g><path d=" M 37.333 15.239 L 18.667 15.239 C 16.604 15.239 14.933 13.532 14.933 11.428 C 14.933 9.323 16.604 7.62 18.667 7.62 L 37.333 7.62 C 39.396 7.62 41.067 9.323 41.067 11.428 C 41.067 13.532 39.396 15.239 37.333 15.239 Z " fill="rgb(11,163,227)"/><path d=" M 41.067 11.428 L 52.267 11.428 C 54.329 11.428 56 13.134 56 15.239 L 56 60.953 C 56 63.058 54.329 64.761 52.267 64.761 L 3.733 64.761 C 1.671 64.761 0 63.058 0 60.953 L 0 15.239 C 0 13.134 1.671 11.428 3.733 11.428 L 14.933 11.428 C 14.933 13.532 16.604 15.239 18.667 15.239 L 37.333 15.239 C 39.396 15.239 41.067 13.532 41.067 11.428 Z " fill="rgb(48,194,255)"/><g><path d=" M 37.337 7.62 C 39.015 7.62 40.416 8.757 40.885 10.308 L 39.716 3.14 C 39.42 1.326 37.884 0 36.085 0 C 33.81 0 32.075 2.087 32.452 4.377 L 32.981 7.62 L 37.337 7.62 Z " fill="rgb(11,163,227)"/><path d=" M 18.67 7.62 L 23.026 7.62 L 23.556 4.377 C 23.929 2.087 22.197 0 19.922 0 C 18.123 0 16.587 1.326 16.292 3.14 L 15.118 10.308 C 15.591 8.757 16.992 7.62 18.67 7.62 Z " fill="rgb(11,163,227)"/><path d=" M 49.764 64.761 L 42.919 64.761 C 42.919 65.34 42.784 65.881 42.56 66.368 L 44.274 76.86 C 44.569 78.674 46.105 80 47.908 80 C 50.183 80 51.911 77.913 51.538 75.623 L 49.764 64.761 Z " fill="rgb(11,163,227)"/><path d=" M 13.07 64.761 L 6.226 64.761 L 4.452 75.623 C 4.075 77.913 5.81 80 8.085 80 C 9.884 80 11.42 78.674 11.716 76.86 L 13.429 66.368 C 13.205 65.881 13.07 65.34 13.07 64.761 Z " fill="rgb(11,163,227)"/></g><path d=" M 28 78.094 C 25.938 78.094 24.267 76.391 24.267 74.286 L 24.267 68.572 L 31.733 68.572 L 31.733 74.286 C 31.733 76.391 30.062 78.094 28 78.094 Z " fill="rgb(11,163,227)"/><path d=" M 47.2 68.572 L 8.8 68.572 C 6.738 68.572 5.067 66.866 5.067 64.761 C 5.067 62.656 6.738 60.953 8.8 60.953 L 47.2 60.953 C 49.262 60.953 50.933 62.656 50.933 64.761 C 50.933 66.866 49.262 68.572 47.2 68.572 Z " fill="rgb(11,163,227)"/></g><g><path d=" M 34.814 48.945 C 33.819 48.196 32.351 47.625 30.799 47.024 C 28.95 46.308 26.854 45.494 25.281 44.243 C 23.499 42.824 22.631 41.033 22.631 38.771 C 22.631 36.739 23.474 35.003 25.068 33.748 C 26.856 32.341 29.566 31.596 32.903 31.596 C 33.825 31.596 34.705 31.652 35.521 31.765 C 35.594 31.775 35.663 31.735 35.692 31.671 C 35.723 31.604 35.707 31.527 35.653 31.479 C 33.55 29.587 30.832 28.547 28.001 28.547 C 24.941 28.547 22.065 29.737 19.9 31.902 C 17.737 34.065 16.545 36.941 16.545 39.999 C 16.545 43.059 17.735 45.935 19.9 48.098 C 22.063 50.261 24.939 51.453 28.001 51.453 C 30.474 51.453 32.828 50.677 34.812 49.209 C 34.853 49.178 34.878 49.13 34.878 49.078 C 34.878 49.026 34.855 48.976 34.814 48.945 Z " fill="rgb(255,255,255)"/><path d=" M 39.405 38.942 C 39.401 38.898 39.38 38.856 39.347 38.829 C 36.958 36.846 35.024 36.036 32.674 36.036 C 31.421 36.036 30.459 36.288 29.818 36.783 C 29.262 37.212 28.969 37.811 28.969 38.513 C 28.969 40.48 31.373 41.377 34.158 42.416 C 35.592 42.95 37.076 43.504 38.438 44.26 C 38.463 44.274 38.49 44.281 38.517 44.281 C 38.535 44.281 38.554 44.276 38.573 44.27 C 38.617 44.254 38.654 44.22 38.671 44.174 C 39.191 42.842 39.455 41.437 39.455 39.999 C 39.453 39.662 39.439 39.306 39.405 38.942 Z " fill="rgb(255,255,255)"/></g></g></g></svg>